<svg width="15" height="17" viewBox="0 0 15 17" fill="none" xmlns="http://www.w3.org/2000/svg">
<path fill-rule="evenodd" clip-rule="evenodd" d="M6.64846 0.857705C6.90425 0.65876 7.26242 0.65876 7.51821 0.857705L13.8932 5.81604C14.0657 5.95023 14.1667 6.15658 14.1667 6.37516V14.1668C14.1667 14.7304 13.9428 15.2709 13.5443 15.6694C13.1458 16.0679 12.6053 16.2918 12.0417 16.2918H2.125C1.56141 16.2918 1.02091 16.0679 0.622398 15.6694C0.223883 15.2709 0 14.7304 0 14.1668V6.37516C0 6.15658 0.100918 5.95023 0.273459 5.81604L6.64846 0.857705ZM1.41667 6.7216V14.1668C1.41667 14.3547 1.49129 14.5349 1.62413 14.6677C1.75697 14.8005 1.93714 14.8752 2.125 14.8752H12.0417C12.2295 14.8752 12.4097 14.8005 12.5425 14.6677C12.6754 14.5349 12.75 14.3547 12.75 14.1668V6.7216L7.08333 2.31419L1.41667 6.7216Z" fill="#FBFFFF"/>
</svg>
