<svg width="28" height="28" viewBox="0 0 28 28" fill="none" xmlns="http://www.w3.org/2000/svg">
<path d="M19.7445 0.206415C19.8493 0.286115 19.9333 0.384592 19.9908 0.495176C20.0483 0.60576 20.078 0.725867 20.0778 0.84736V1.69517H21.0467C21.8176 1.69517 22.557 1.96314 23.1021 2.44013C23.6473 2.91711 23.9535 3.56404 23.9535 4.2386V25.4339H26.8603C27.1173 25.4339 27.3637 25.5232 27.5454 25.6822C27.7271 25.8412 27.8292 26.0568 27.8292 26.2817C27.8292 26.5065 27.7271 26.7222 27.5454 26.8812C27.3637 27.0402 27.1173 27.1295 26.8603 27.1295H1.66815C1.41117 27.1295 1.16472 27.0402 0.983011 26.8812C0.801302 26.7222 0.699219 26.5065 0.699219 26.2817C0.699219 26.0568 0.801302 25.8412 0.983011 25.6822C1.16472 25.5232 1.41117 25.4339 1.66815 25.4339H4.57493V2.54298C4.57497 2.33871 4.65929 2.14132 4.81239 1.98712C4.96548 1.83291 5.17706 1.73225 5.40821 1.70365L18.9732 0.00802737C19.1105 -0.00912901 19.2504 -0.000295932 19.3835 0.0339296C19.5165 0.0681552 19.6396 0.126976 19.7445 0.206415ZM21.0467 3.39079H20.0778V25.4339H22.0157V4.2386C22.0157 4.01375 21.9136 3.79811 21.7319 3.63911C21.5501 3.48012 21.3037 3.39079 21.0467 3.39079ZM6.51279 3.27888V25.4339H18.1399V1.82573L6.51279 3.27888Z" fill="#FBFFFF"/>
</svg>
