<svg width="28" height="28" viewBox="0 0 28 28" fill="none" xmlns="http://www.w3.org/2000/svg">
<path fill-rule="evenodd" clip-rule="evenodd" d="M0 -0.000488281H1.69562V25.4339H27.13V27.1295H0V-0.000488281ZM16.9562 5.9342C16.9562 5.70935 17.0456 5.4937 17.2046 5.33471C17.3636 5.17571 17.5792 5.08639 17.8041 5.08639H24.5866C24.8114 5.08639 25.0271 5.17571 25.1861 5.33471C25.3451 5.4937 25.4344 5.70935 25.4344 5.9342V12.7167C25.4344 12.9416 25.3451 13.1572 25.1861 13.3162C25.0271 13.4752 24.8114 13.5645 24.5866 13.5645C24.3617 13.5645 24.1461 13.4752 23.9871 13.3162C23.8281 13.1572 23.7387 12.9416 23.7387 12.7167V8.30807L17.6125 15.7977C17.5375 15.8892 17.4441 15.964 17.3385 16.0173C17.2328 16.0706 17.1172 16.1012 16.999 16.1071C16.8808 16.113 16.7627 16.0941 16.6522 16.0516C16.5418 16.0091 16.4414 15.944 16.3577 15.8604L11.9711 11.4738L5.77191 19.9977C5.6363 20.1702 5.43912 20.2833 5.22182 20.3134C5.00452 20.3435 4.78401 20.2882 4.60663 20.1591C4.42925 20.0301 4.30881 19.8372 4.27062 19.6212C4.23243 19.4052 4.27947 19.1828 4.40184 19.0007L11.1843 9.67475C11.2563 9.57558 11.349 9.49319 11.4559 9.43327C11.5628 9.37335 11.6814 9.33731 11.8035 9.32764C11.9257 9.31797 12.0485 9.3349 12.1635 9.37726C12.2785 9.41962 12.3829 9.4864 12.4696 9.57301L16.8935 13.9986L22.7977 6.78201H17.8041C17.5792 6.78201 17.3636 6.69269 17.2046 6.53369C17.0456 6.3747 16.9562 6.15905 16.9562 5.9342Z" fill="#FBFFFF"/>
</svg>
