<svg width="29" height="28" viewBox="0 0 29 28" fill="none" xmlns="http://www.w3.org/2000/svg">
<path d="M6.04448 5.50776H23.0028C23.2009 5.50766 23.3988 5.52023 23.5953 5.54538C23.5287 5.07785 23.3681 4.62864 23.1232 4.22485C22.8783 3.82106 22.5542 3.47105 22.1703 3.19591C21.7865 2.92078 21.3509 2.72622 20.8899 2.62398C20.4288 2.52173 19.9518 2.51391 19.4877 2.60099L5.54103 4.98205H5.52513C4.6497 5.14946 3.8712 5.64476 3.34863 6.3668C4.13592 5.80682 5.07835 5.50651 6.04448 5.50776Z" fill="white"/>
<path d="M23.0024 6.78223H6.04401C5.14479 6.78321 4.28267 7.14086 3.64683 7.77671C3.01098 8.41256 2.65333 9.27467 2.65234 10.1739V20.3489C2.65333 21.2481 3.01098 22.1102 3.64683 22.7461C4.28267 23.3819 5.14479 23.7396 6.04401 23.7406H23.0024C23.9016 23.7396 24.7637 23.3819 25.3996 22.7461C26.0354 22.1102 26.393 21.2481 26.394 20.3489V10.1739C26.393 9.27467 26.0354 8.41256 25.3996 7.77671C24.7637 7.14086 23.9016 6.78321 23.0024 6.78223ZM20.4851 16.9572C20.1497 16.9572 19.8218 16.8578 19.543 16.6714C19.2641 16.4851 19.0467 16.2202 18.9184 15.9104C18.79 15.6005 18.7564 15.2595 18.8219 14.9306C18.8873 14.6016 19.0488 14.2994 19.286 14.0623C19.5231 13.8251 19.8253 13.6636 20.1543 13.5982C20.4832 13.5327 20.8242 13.5663 21.1341 13.6947C21.4439 13.823 21.7088 14.0404 21.8951 14.3192C22.0815 14.5981 22.1809 14.926 22.1809 15.2614C22.1809 15.7112 22.0023 16.1425 21.6842 16.4605C21.3662 16.7786 20.9349 16.9572 20.4851 16.9572Z" fill="white"/>
<path d="M2.67969 13.7484V8.47543C2.67969 7.32703 3.31563 5.40173 5.52286 4.98466C7.39623 4.6333 9.25105 4.6333 9.25105 4.6333C9.25105 4.6333 10.4699 5.48122 9.46303 5.48122C8.45613 5.48122 8.48262 6.77959 9.46303 6.77959C10.4434 6.77959 9.46303 8.02497 9.46303 8.02497L5.51491 12.503L2.67969 13.7484Z" fill="white"/>
</svg>
